<?xml version="1.0" encoding="utf-8"?>
<!-- Generator: Adobe Illustrator 23.0.1, SVG Export Plug-In . SVG Version: 6.00 Build 0)  -->
<svg version="1.1" id="Capa_1" xmlns="http://www.w3.org/2000/svg" xmlns:xlink="http://www.w3.org/1999/xlink" x="0px" y="0px"
	 viewBox="0 0 19 19" style="enable-background:new 0 0 19 19;" xml:space="preserve">
<style type="text/css">
	.st0{fill:#474747;}
</style>
<g>
	<g>
		<path class="st0" d="M14.44,12.57c-0.62-0.61-1.4-0.61-2.01,0c-0.47,0.47-0.94,0.93-1.4,1.41c-0.13,0.13-0.23,0.16-0.39,0.07
			c-0.3-0.17-0.63-0.3-0.92-0.48c-1.36-0.86-2.51-1.96-3.52-3.2C5.7,9.74,5.25,9.08,4.94,8.34C4.88,8.19,4.89,8.09,5.01,7.97
			C5.48,7.52,5.94,7.05,6.4,6.58c0.64-0.65,0.64-1.41,0-2.06C6.03,4.15,5.66,3.79,5.3,3.42C4.92,3.04,4.54,2.65,4.16,2.28
			c-0.62-0.6-1.4-0.6-2.01,0c-0.47,0.47-0.93,0.94-1.41,1.4C0.29,4.11,0.06,4.63,0.01,5.23c-0.08,0.98,0.17,1.91,0.51,2.82
			c0.7,1.87,1.76,3.54,3.04,5.06c1.74,2.06,3.81,3.7,6.23,4.87c1.09,0.53,2.22,0.94,3.45,1c0.85,0.05,1.58-0.17,2.17-0.83
			c0.4-0.45,0.86-0.86,1.28-1.29c0.63-0.64,0.64-1.42,0.01-2.05C15.95,14.07,15.2,13.32,14.44,12.57z"/>
		<path class="st0" d="M13.69,9.42l1.46-0.25c-0.23-1.34-0.86-2.55-1.82-3.52c-1.02-1.02-2.3-1.66-3.72-1.85L9.4,5.26
			c1.1,0.15,2.09,0.65,2.88,1.44C13.02,7.44,13.51,8.38,13.69,9.42z"/>
		<path class="st0" d="M15.97,3.08C14.28,1.39,12.15,0.33,9.8,0L9.6,1.47c2.03,0.28,3.87,1.21,5.33,2.66
			c1.38,1.38,2.28,3.12,2.61,5.04L19,8.91C18.61,6.69,17.57,4.68,15.97,3.08z"/>
	</g>
</g>
</svg>
