<?xml version="1.0" encoding="utf-8"?>
<!-- Generator: Adobe Illustrator 23.0.1, SVG Export Plug-In . SVG Version: 6.00 Build 0)  -->
<svg version="1.1" id="Capa_1" xmlns="http://www.w3.org/2000/svg" xmlns:xlink="http://www.w3.org/1999/xlink" x="0px" y="0px"
	 viewBox="0 0 22 22" style="enable-background:new 0 0 22 22;" xml:space="preserve">
<style type="text/css">
	.st0{fill:#2785CA;}
</style>
<g>
	<g>
		<path class="st0" d="M16.72,14.55c-0.72-0.71-1.62-0.71-2.33,0c-0.54,0.54-1.09,1.08-1.62,1.63c-0.15,0.15-0.27,0.18-0.45,0.08
			c-0.35-0.19-0.73-0.35-1.07-0.56c-1.58-0.99-2.9-2.27-4.07-3.71c-0.58-0.71-1.1-1.48-1.46-2.34C5.65,9.48,5.66,9.37,5.8,9.23
			C6.35,8.7,6.88,8.16,7.41,7.62c0.75-0.75,0.75-1.63,0-2.38C6.98,4.81,6.56,4.39,6.13,3.95C5.69,3.52,5.26,3.07,4.81,2.64
			c-0.72-0.7-1.62-0.7-2.33,0C1.93,3.18,1.41,3.74,0.85,4.27C0.33,4.76,0.07,5.36,0.02,6.06C-0.07,7.2,0.21,8.27,0.6,9.32
			c0.81,2.17,2.03,4.1,3.52,5.86c2.01,2.39,4.41,4.28,7.21,5.64c1.26,0.61,2.57,1.08,4,1.16c0.98,0.05,1.83-0.19,2.51-0.96
			c0.47-0.52,0.99-1,1.49-1.5c0.73-0.74,0.74-1.64,0.01-2.37C18.47,16.29,17.6,15.42,16.72,14.55z"/>
		<path class="st0" d="M15.85,10.9l1.69-0.29c-0.27-1.55-1-2.96-2.11-4.07c-1.18-1.18-2.66-1.92-4.3-2.15l-0.24,1.7
			c1.27,0.18,2.42,0.75,3.33,1.66C15.08,8.61,15.64,9.7,15.85,10.9z"/>
		<path class="st0" d="M18.49,3.56C16.54,1.61,14.07,0.38,11.35,0l-0.24,1.7c2.35,0.33,4.49,1.4,6.17,3.08
			c1.6,1.6,2.65,3.62,3.03,5.84L22,10.32C21.55,7.75,20.34,5.42,18.49,3.56z"/>
	</g>
</g>
</svg>
