<?xml version="1.0" encoding="utf-8"?>
<!-- Generator: Adobe Illustrator 23.0.1, SVG Export Plug-In . SVG Version: 6.00 Build 0)  -->
<svg version="1.1" id="Слой_1" xmlns="http://www.w3.org/2000/svg" xmlns:xlink="http://www.w3.org/1999/xlink" x="0px" y="0px"
	 viewBox="0 0 80.79 80.79" style="enable-background:new 0 0 80.79 80.79;" xml:space="preserve">
<style type="text/css">
	.st0{fill:#2785CA;}
	.st1{fill:#FFFFFF;}
</style>
<circle class="st0" cx="40.39" cy="40.44" r="39.99"/>
<g>
	<path class="st1" d="M62.71,38.43c-0.02-0.02-0.03-0.04-0.05-0.06c-0.04-0.04-0.07-0.08-0.11-0.11l-9.28-9.28
		c-0.39-0.39-0.84-0.72-1.32-0.98c-0.01,0-0.01-0.01-0.02-0.01c-0.01-0.01-0.02-0.01-0.03-0.02c-0.01-0.01-0.02-0.01-0.03-0.02
		c-0.2-0.11-0.41-0.2-0.63-0.28c0,0,0,0,0,0c-0.04-0.01-0.07-0.03-0.11-0.04c-0.01,0-0.02-0.01-0.03-0.01c-0.01,0-0.01,0-0.02-0.01
		c-0.02-0.01-0.04-0.01-0.06-0.02l0,0c-0.08-0.03-0.17-0.05-0.26-0.08l-2.71-0.75c-0.56-0.15-1.15-0.07-1.64,0.21
		c-0.16,0.09-0.3,0.2-0.43,0.33v0c0,0,0,0-0.01,0.01c-0.03,0.03-0.06,0.06-0.09,0.1c0,0,0,0,0,0c-0.47,0.54-0.64,1.28-0.45,1.97
		l0.75,2.71c0.26,0.95,0.77,1.81,1.46,2.51l9.28,9.28c0.04,0.04,0.09,0.08,0.13,0.13c0,0,0.01,0.01,0.01,0.01
		c0,0,0.01,0.01,0.01,0.01c0.73,0.66,1.67,1.02,2.65,1.02c1.04,0,2.03-0.4,2.77-1.13c0,0,0,0,0,0c0.01-0.01,0.02-0.02,0.04-0.04
		c0.05-0.05,0.09-0.09,0.14-0.14c0.66-0.73,1.03-1.67,1.03-2.67c0-0.98-0.35-1.9-0.99-2.62C62.72,38.45,62.72,38.44,62.71,38.43z
		 M60.83,42.23C60.83,42.23,60.83,42.23,60.83,42.23c-0.62,0.59-1.61,0.58-2.22-0.03l-1.48-1.48l2.24-2.24l0.2,0.2l1.28,1.28
		c0.62,0.62,0.62,1.63,0,2.24C60.85,42.21,60.84,42.22,60.83,42.23z M57.69,36.79l-2.24,2.24l-5.55-5.55l2.13-2.36L57.69,36.79z
		 M48.49,31.46l-0.17-0.63l-0.45-1.64l2.08,0.58l0.07,0.02l-1.52,1.68C48.49,31.47,48.49,31.47,48.49,31.46z"/>
	<path class="st1" d="M29.5,39.42c-0.54-0.55-1.26-0.86-2.04-0.86c-0.77,0-1.5,0.31-2.04,0.86l-6.23,6.38
		c-0.51,0.52-0.65,1.29-0.37,1.96c0.28,0.67,0.93,1.1,1.66,1.1h1.22v4c0,1.2,0.98,2.18,2.18,2.18h7.14c1.2,0,2.18-0.98,2.18-2.18v-4
		h1.22c0.73,0,1.38-0.43,1.66-1.1c0.28-0.67,0.14-1.44-0.37-1.96L29.5,39.42z M32.35,46.47c-0.84,0-1.53,0.69-1.53,1.53v4.65h-2.17
		v-1.83c0-0.66-0.53-1.19-1.19-1.19c-0.66,0-1.19,0.54-1.19,1.19v1.83H24.1V48c0-0.84-0.69-1.53-1.53-1.53h-0.69l5.26-5.39
		c0.12-0.12,0.25-0.14,0.33-0.14c0.07,0,0.21,0.02,0.33,0.14l5.25,5.39H32.35z"/>
	<path class="st1" d="M44.15,39.13c-0.66,0-1.19,0.53-1.19,1.19v0c0,0.66,0.53,1.19,1.19,1.19c0.66,0,1.19-0.54,1.19-1.2
		C45.34,39.66,44.81,39.13,44.15,39.13z"/>
	<path class="st1" d="M65.57,21.74H40.86c-2.99,0-5.42,2.43-5.42,5.41v5.95H15.22c-2.99,0-5.42,2.43-5.42,5.42v16.21
		c0,2.99,2.43,5.41,5.42,5.41h2.03c0.29,0,0.57,0.11,0.79,0.31l4.94,4.61c0.46,0.43,1.05,0.66,1.65,0.66c0.36,0,0.72-0.08,1.06-0.25
		c0.91-0.44,1.44-1.38,1.36-2.38l-0.21-2.5c-0.01-0.15,0.06-0.26,0.11-0.31c0.05-0.05,0.14-0.13,0.3-0.13h12.67
		c2.99,0,5.41-2.43,5.41-5.41v-5.95h8.19c0.16,0,0.25,0.08,0.3,0.13c0.05,0.05,0.12,0.15,0.11,0.31l-0.21,2.5
		c-0.08,1.01,0.45,1.94,1.36,2.39c0.34,0.17,0.7,0.25,1.06,0.25c0.6,0,1.19-0.22,1.65-0.66l4.95-4.61c0.22-0.2,0.5-0.31,0.79-0.31
		h2.03c2.99,0,5.41-2.43,5.41-5.42V27.15C70.99,24.17,68.56,21.74,65.57,21.74z M68.6,43.37c0,1.67-1.36,3.02-3.02,3.02h-2.03
		c-0.9,0-1.76,0.34-2.42,0.95l-4.94,4.61c-0.01,0.01-0.02,0.01-0.02,0.01c-0.01,0-0.04-0.01-0.05-0.02c0,0,0-0.01,0-0.02l0.21-2.5
		c0.06-0.78-0.2-1.55-0.73-2.12c-0.53-0.57-1.28-0.9-2.06-0.9h-8.19v-1.17c0-0.66-0.54-1.19-1.19-1.19c-0.66,0-1.19,0.53-1.19,1.19
		v9.51c0,1.67-1.36,3.02-3.03,3.02H27.26c-0.78,0-1.53,0.33-2.06,0.9c-0.53,0.57-0.79,1.35-0.73,2.12l0.21,2.5c0,0.01,0,0.02,0,0.02
		c-0.01,0.01-0.04,0.03-0.05,0.02c0,0-0.01,0-0.02-0.01l-4.94-4.61c-0.66-0.61-1.52-0.95-2.42-0.95h-2.03
		c-1.67,0-3.03-1.36-3.03-3.02V38.52c0-1.67,1.36-3.03,3.03-3.03h24.71c0.77,0,1.49,0.28,2.05,0.8c0.03,0.03,0.05,0.05,0.08,0.08
		c0.47,0.46,1.23,0.46,1.69-0.01c0.46-0.47,0.46-1.23-0.01-1.69c-0.21-0.21-0.43-0.39-0.66-0.56c-0.04-0.03-0.07-0.05-0.11-0.08
		c-0.05-0.04-0.11-0.07-0.17-0.11c-0.07-0.05-0.15-0.09-0.23-0.13c-0.02-0.01-0.04-0.02-0.06-0.03c-0.79-0.43-1.67-0.66-2.59-0.66
		h-2.09v-5.95c0-1.67,1.36-3.03,3.03-3.03h24.71c1.67,0,3.03,1.36,3.03,3.03V43.37z"/>
</g>
</svg>
