<?xml version="1.0" encoding="utf-8"?>
<!-- Generator: Adobe Illustrator 23.0.1, SVG Export Plug-In . SVG Version: 6.00 Build 0)  -->
<svg version="1.1" id="Слой_1" xmlns="http://www.w3.org/2000/svg" xmlns:xlink="http://www.w3.org/1999/xlink" x="0px" y="0px"
	 viewBox="0 0 80.79 80.79" style="enable-background:new 0 0 80.79 80.79;" xml:space="preserve">
<style type="text/css">
	.st0{fill:#2785CA;}
	.st1{fill:#FFFFFF;}
</style>
<circle class="st0" cx="40.39" cy="40.44" r="39.99"/>
<g>
	<path class="st1" d="M50.38,37.11c0.35-0.35,0.35-0.92,0-1.28c-0.35-0.35-0.92-0.35-1.28,0c-0.35,0.35-0.35,0.92,0,1.28
		C49.46,37.46,50.03,37.46,50.38,37.11z"/>
	<path class="st1" d="M19.2,62.15h44.39c0.36,0,0.69-0.22,0.83-0.56c0.14-0.34,0.06-0.73-0.2-0.98L19.84,16.22
		c-0.26-0.26-0.65-0.34-0.98-0.2c-0.34,0.14-0.56,0.47-0.56,0.83v44.39C18.3,61.75,18.7,62.15,19.2,62.15z M20.1,19.04l7.26,7.26
		l-1.91,1.91c-0.35,0.35-0.35,0.92,0,1.28c0.35,0.35,0.92,0.35,1.28,0l1.91-1.91l3.83,3.83l-1.91,1.91c-0.35,0.35-0.35,0.92,0,1.28
		c0.35,0.35,0.92,0.35,1.28,0l1.91-1.91l3.83,3.83l-1.91,1.91c-0.35,0.35-0.35,0.92,0,1.28c0.35,0.35,0.92,0.35,1.28,0l1.91-1.91
		l3.83,3.83l-1.91,1.91c-0.35,0.35-0.35,0.92,0,1.28c0.35,0.35,0.92,0.35,1.28,0l1.91-1.91l3.83,3.83l-1.91,1.91
		c-0.35,0.35-0.35,0.92,0,1.28c0.35,0.35,0.92,0.35,1.28,0l1.91-1.91l3.83,3.83l-1.91,1.91c-0.35,0.35-0.35,0.92,0,1.28
		c0.35,0.35,0.92,0.35,1.28,0l1.91-1.91l7.26,7.26H20.1V19.04z"/>
	<path class="st1" d="M27.6,34.72c-0.26-0.26-0.65-0.34-0.98-0.2c-0.34,0.14-0.56,0.47-0.56,0.83v18.14c0,0.5,0.4,0.9,0.9,0.9h18.14
		c0.37,0,0.69-0.22,0.83-0.56c0.14-0.34,0.06-0.73-0.2-0.98L27.6,34.72z M27.86,52.59V37.53l15.05,15.05H27.86z"/>
	<path class="st1" d="M46.56,34.56c0.35,0.35,0.92,0.35,1.28,0c0.35-0.35,0.35-0.92,0-1.28L44,29.45c-0.35-0.35-0.92-0.35-1.28,0
		c-0.35,0.35-0.35,0.92,0,1.28L46.56,34.56z"/>
	<path class="st1" d="M31.99,25.15l25.33,25.33c1.06,1.06,2.77,1.06,3.83,0l2.55-2.55c1.05-1.05,1.05-2.77,0-3.83L38.37,18.77
		c-0.1-0.1-0.22-0.17-0.35-0.22L30.36,16c-0.32-0.11-0.68-0.02-0.92,0.22c-0.24,0.24-0.33,0.6-0.22,0.92l2.55,7.66
		C31.82,24.93,31.89,25.05,31.99,25.15z M62.42,45.37c0.35,0.35,0.35,0.93,0,1.28l-2.55,2.55c-0.35,0.35-0.92,0.35-1.28,0
		l-1.95-1.95l3.83-3.83L62.42,45.37z M59.19,42.14l-3.83,3.83l-1.28-1.28l3.83-3.83L59.19,42.14z M38.33,21.28l18.31,18.31
		l-3.83,3.83L34.5,25.11L38.33,21.28z M36.96,20.1l-3.64,3.64l-1.82-5.45L36.96,20.1z"/>
</g>
</svg>
